IKResults
version=1
nRows=29
nColumns=24
inDegrees=yes

Units are S.I. units (second, meters, Newtons, ...)
If the header above contains a line with 'inDegrees', this indicates whether rotational values are in degrees (yes) or radians (no).

endheader
time	pelvis_tilt	pelvis_list	pelvis_rotation	pelvis_tx	pelvis_ty	pelvis_tz	hip_flexion_r	hip_adduction_r	hip_rotation_r	knee_angle_r	ankle_angle_r	subtalar_angle_r	mtp_angle_r	hip_flexion_l	hip_adduction_l	hip_rotation_l	knee_angle_l	ankle_angle_l	subtalar_angle_l	mtp_angle_l	lumbar_extension	lumbar_bending	lumbar_rotation
      0.00000000	     10.46803648	      1.53288843	   -180.44576048	      0.21226099	      0.85052308	     -1.20123856	     15.56291520	    -10.45440609	    -33.31424290	    -10.58188212	     -0.48471523	      8.85822848	      0.00000000	     15.19296149	    -13.66584065	    -32.97528640	    -10.16393510	      1.48381015	     15.22849029	      0.00000000	      6.74641115	      1.32826878	     -1.55766700
      0.00500000	     10.45625594	      1.56429648	   -180.46651411	      0.21232794	      0.85050357	     -1.20122590	     15.56771156	    -10.42219493	    -33.34066814	    -10.59858138	     -0.46740430	      8.85846511	      0.00000000	     15.17868451	    -13.69728574	    -32.96888853	    -10.15031139	      1.46835100	     15.21430444	      0.00000000	      6.77320843	      1.29953104	     -1.35895662
      0.01000000	     10.44007477	      1.58269703	   -180.48390128	      0.21234148	      0.85051477	     -1.20125599	     15.56067231	    -10.40053968	    -33.36892725	    -10.60999997	     -0.44402401	      8.87222156	      0.00000000	     15.15434187	    -13.71534448	    -32.95210410	    -10.13341571	      1.47520114	     15.19462988	      0.00000000	      6.79283601	      1.43673555	     -0.99631600
      0.01500000	     10.43747902	      1.58313050	   -180.48477346	      0.21236901	      0.85054534	     -1.20124806	     15.56026726	    -10.40017957	    -33.36903066	    -10.60957100	     -0.44371978	      8.87242711	      0.00000000	     15.15557464	    -13.71341967	    -32.95235301	    -10.13360720	      1.47526128	     15.19443917	      0.00000000	      6.79348041	      1.43683221	     -0.99668787
      0.02000000	     10.42483647	      1.55296906	   -180.46841030	      0.21238537	      0.85054721	     -1.20127568	     15.52491299	    -10.42237678	    -33.35884460	    -10.56393807	     -0.43856749	      8.89458436	      0.00000000	     15.16210966	    -13.68777833	    -32.96147127	    -10.17141220	      1.48961686	     15.18133238	      0.00000000	      6.78010001	      1.39405636	     -1.03896887
      0.02500000	     10.38786750	      1.51844973	   -180.44581006	      0.21238814	      0.85057382	     -1.20128545	     15.47991750	    -10.46363792	    -33.38760060	    -10.56139007	     -0.44813898	      8.92868701	      0.00000000	     15.12503691	    -13.64435505	    -32.95646675	    -10.17147512	      1.52951590	     15.19124153	      0.00000000	      6.73925904	      1.34569537	     -1.07828362
      0.03000000	     10.37731843	      1.52457151	   -180.44898829	      0.21241389	      0.85059490	     -1.20128447	     15.47502042	    -10.45886880	    -33.39977173	    -10.56860167	     -0.44793831	      8.94621665	      0.00000000	     15.12279450	    -13.65611169	    -32.96948734	    -10.18910442	      1.51380815	     15.18209986	      0.00000000	      6.73427905	      1.34368111	     -1.02518579
      0.03500000	     10.37555726	      1.54231578	   -180.47058587	      0.21242694	      0.85059006	     -1.20126013	     15.48840858	    -10.44217913	    -33.41533374	    -10.59241866	     -0.44677236	      8.95819547	      0.00000000	     15.10514791	    -13.66669948	    -33.01627007	    -10.16746650	      1.51322723	     15.15891395	      0.00000000	      6.73118303	      1.38109284	     -1.01875108
      0.04000000	     10.36110057	      1.55115545	   -180.50259549	      0.21243096	      0.85056880	     -1.20123864	     15.48762616	    -10.43349860	    -33.42717410	    -10.60977870	     -0.44424215	      9.01365857	      0.00000000	     15.08496641	    -13.67608927	    -33.05851403	    -10.17554927	      1.52360289	     15.13654408	      0.00000000	      6.72805844	      1.39679500	     -0.92240937
      0.04500000	     10.36004313	      1.53084120	   -180.50645940	      0.21247914	      0.85055156	     -1.20125685	     15.48838623	    -10.45118492	    -33.43222373	    -10.60409864	     -0.44766982	      9.02816233	      0.00000000	     15.09212057	    -13.66302026	    -33.04226804	    -10.19149076	      1.51192163	     15.14840222	      0.00000000	      6.72415125	      1.37869114	     -0.92047014
      0.05000000	     10.36467250	      1.50998650	   -180.50937578	      0.21252063	      0.85050355	     -1.20128115	     15.49189385	    -10.46858689	    -33.43031750	    -10.59126764	     -0.45634126	      9.04857121	      0.00000000	     15.10114094	    -13.64323780	    -33.05709414	    -10.20345511	      1.53113618	     15.14767374	      0.00000000	      6.72446681	      1.36326177	     -0.95498378
      0.05500000	     10.36361678	      1.51032262	   -180.50663307	      0.21256386	      0.85050584	     -1.20132004	     15.49222852	    -10.46592960	    -33.43076573	    -10.59111689	     -0.45737910	      9.05121256	      0.00000000	     15.10336147	    -13.64404839	    -33.05677635	    -10.20539830	      1.53188610	     15.14893082	      0.00000000	      6.72327546	      1.35163053	     -0.95120972
      0.06000000	     10.36252177	      1.51049104	   -180.51559118	      0.21257616	      0.85051376	     -1.20133202	     15.49366425	    -10.46263859	    -33.45279249	    -10.58466984	     -0.44128646	      9.05228376	      0.00000000	     15.10354646	    -13.64701284	    -33.05388177	    -10.21058159	      1.52810932	     15.15110167	      0.00000000	      6.72730986	      1.34294993	     -0.91023897
      0.06500000	     10.35860371	      1.52504730	   -180.53562449	      0.21259031	      0.85054372	     -1.20134493	     15.50618415	    -10.45259740	    -33.46951055	    -10.61195516	     -0.41913349	      9.05769774	      0.00000000	     15.09405015	    -13.66545610	    -33.06618647	    -10.20210176	      1.52080182	     15.14122754	      0.00000000	      6.72471999	      1.36021813	     -0.87734327
      0.07000000	     10.35663527	      1.52368496	   -180.53617538	      0.21260638	      0.85054491	     -1.20137389	     15.50595965	    -10.45193673	    -33.46957906	    -10.61192647	     -0.41889969	      9.05809239	      0.00000000	     15.09511538	    -13.66445418	    -33.06618293	    -10.20270837	      1.52087964	     15.14124174	      0.00000000	      6.72536053	      1.36134017	     -0.87748468
      0.07500000	     10.35178068	      1.50965367	   -180.53046850	      0.21263346	      0.85052762	     -1.20141104	     15.49570268	    -10.46336768	    -33.46424159	    -10.59830655	     -0.41375930	      9.07794166	      0.00000000	     15.10764677	    -13.65737555	    -33.07732870	    -10.23509707	      1.52799584	     15.13019448	      0.00000000	      6.72115289	      1.35456783	     -0.89977712
      0.08000000	     10.34965711	      1.49288530	   -180.52018129	      0.21266547	      0.85052032	     -1.20140576	     15.49607354	    -10.48374595	    -33.47234028	    -10.60011336	     -0.43117141	      9.09946093	      0.00000000	     15.11975753	    -13.63784614	    -33.06007817	    -10.25155616	      1.55673185	     15.14361208	      0.00000000	      6.72465297	      1.33451071	     -0.89784051
      0.08500000	     10.35203924	      1.49971079	   -180.53084021	      0.21266649	      0.85052061	     -1.20139387	     15.50914720	    -10.48011762	    -33.47932075	    -10.61830717	     -0.42674673	      9.10596349	      0.00000000	     15.11158459	    -13.63720936	    -33.08068084	    -10.22751471	      1.55469621	     15.13344437	      0.00000000	      6.72617112	      1.35222153	     -0.89875739
      0.09000000	     10.34788118	      1.50336007	   -180.54856062	      0.21268558	      0.85056336	     -1.20138112	     15.52064834	    -10.47628923	    -33.48121315	    -10.63836135	     -0.43117721	      9.11935961	      0.00000000	     15.10225589	    -13.64872587	    -33.07188207	    -10.22410757	      1.53485694	     15.13843767	      0.00000000	      6.72527604	      1.35704672	     -0.85714486
      0.09500000	     10.34740299	      1.50743947	   -180.55476987	      0.21269071	      0.85055061	     -1.20132182	     15.52171304	    -10.47550233	    -33.48232889	    -10.63796997	     -0.42789271	      9.12245899	      0.00000000	     15.10064301	    -13.64299782	    -33.07671728	    -10.22094950	      1.53678685	     15.13514605	      0.00000000	      6.73090626	      1.36926776	     -0.84992089
      0.10000000	     10.34723818	      1.50761902	   -180.55711129	      0.21272580	      0.85054948	     -1.20138632	     15.52325340	    -10.46816950	    -33.48260875	    -10.63784373	     -0.42810256	      9.12522043	      0.00000000	     15.10085609	    -13.65239122	    -33.07631966	    -10.21886130	      1.53771560	     15.13458402	      0.00000000	      6.73092660	      1.34877179	     -0.84847821
      0.10500000	     10.35397934	      1.49415581	   -180.54808191	      0.21277546	      0.85051261	     -1.20145634	     15.51329819	    -10.47017960	    -33.45543580	    -10.59511694	     -0.42314986	      9.15731194	      0.00000000	     15.11811258	    -13.64108997	    -33.07426183	    -10.22853236	      1.55598874	     15.13702141	      0.00000000	      6.73640491	      1.32698486	     -0.88100242
      0.11000000	     10.35304821	      1.49866412	   -180.54262451	      0.21280607	      0.85049924	     -1.20147937	     15.51383278	    -10.46555322	    -33.45583190	    -10.59604137	     -0.42389311	      9.15945216	      0.00000000	     15.12178720	    -13.64464821	    -33.07308006	    -10.22421401	      1.55715173	     15.13773494	      0.00000000	      6.73740561	      1.31304340	     -0.87552237
      0.11500000	     10.35886717	      1.50937033	   -180.55049112	      0.21280931	      0.85051167	     -1.20148893	     15.52332063	    -10.45394865	    -33.47713514	    -10.59947402	     -0.41709621	      9.16378686	      0.00000000	     15.12131607	    -13.65479564	    -33.06100325	    -10.21416417	      1.55022967	     15.14272056	      0.00000000	      6.75286665	      1.32000689	     -0.83823400
      0.12000000	     10.36643023	      1.51735153	   -180.56844566	      0.21275503	      0.85055451	     -1.20148529	     15.53806214	    -10.44700643	    -33.47634093	    -10.61496917	     -0.40915213	      9.17585643	      0.00000000	     15.11250620	    -13.66305926	    -33.08229282	    -10.19976730	      1.54391989	     15.13036118	      0.00000000	      6.75275831	      1.36639333	     -0.91431018
      0.12500000	     10.37390969	      1.55844471	   -180.57851391	      0.21277673	      0.85059331	     -1.20148877	     15.56925838	    -10.41202239	    -33.60659836	    -10.68016997	     -0.48856380	      9.13564377	      0.00000000	     15.12588937	    -13.70095185	    -33.07000852	    -10.19411269	      1.51718733	     15.10763186	      0.00000000	      6.76279991	      1.42653378	     -0.90278793
      0.13000000	     10.37344718	      1.55885193	   -180.56979587	      0.21279079	      0.85057964	     -1.20152915	     15.56774141	    -10.40896443	    -33.60270958	    -10.68444639	     -0.49417690	      9.14021082	      0.00000000	     15.13027279	    -13.70312539	    -33.06840164	    -10.19279053	      1.51961125	     15.10721392	      0.00000000	      6.76737805	      1.41840850	     -0.91302188
      0.13500000	     10.38317264	      1.52663592	   -180.53895641	      0.21281759	      0.85051931	     -1.20150669	     15.54489062	    -10.43924395	    -33.54081040	    -10.60260291	     -0.45479072	      9.19727984	      0.00000000	     15.15631008	    -13.66586065	    -33.04728047	    -10.21147414	      1.54661699	     15.12271999	      0.00000000	      6.77585325	      1.37746996	     -0.97374508
      0.14000000	     10.38251262	      1.52885246	   -180.53092406	      0.21282822	      0.85054661	     -1.20150486	     15.54340752	    -10.43715989	    -33.54232177	    -10.60512115	     -0.45480880	      9.19788204	      0.00000000	     15.15377728	    -13.67090263	    -33.04889315	    -10.21155712	      1.54721352	     15.12298266	      0.00000000	      6.77859861	      1.36248056	     -0.96889265
